{
    "asset" : {
        "generator" : "Khronos glTF Blender I/O v1.7.33",
        "version" : "2.0"
    },
    "scene" : 0,
    "scenes" : [
        {
            "name" : "Scene",
            "nodes" : [
                0
            ]
        }
    ],
    "nodes" : [
        {
            "mesh" : 0,
            "name" : "Cube"
        }
    ],
    "materials" : [
        {
            "doubleSided" : true,
            "name" : "Material.001",
            "pbrMetallicRoughness" : {
                "baseColorFactor" : [
                    0.07723168283700943,
                    0.16360732913017273,
                    0.8000000715255737,
                    1
                ],
                "metallicFactor" : 0,
                "roughnessFactor" : 0.5
            }
        }
    ],
    "meshes" : [
        {
            "name" : "Cube.001",
            "primitives" : [
                {
                    "attributes" : {
                        "POSITION" : 0,
                        "NORMAL" : 1,
                        "TEXCOORD_0" : 2
                    },
                    "indices" : 3,
                    "material" : 0
                }
            ]
        }
    ],
    "accessors" : [
        {
            "bufferView" : 0,
            "componentType" : 5126,
            "count" : 289,
            "max" : [
                0.9731835722923279,
                2.8112545013427734,
                0.7952336668968201
            ],
            "min" : [
                -1.2316299676895142,
                -0.976158082485199,
                -1.1979728937149048
            ],
            "type" : "VEC3"
        },
        {
            "bufferView" : 1,
            "componentType" : 5126,
            "count" : 289,
            "type" : "VEC3"
        },
        {
            "bufferView" : 2,
            "componentType" : 5126,
            "count" : 289,
            "type" : "VEC2"
        },
        {
            "bufferView" : 3,
            "componentType" : 5123,
            "count" : 1344,
            "type" : "SCALAR"
        }
    ],
    "bufferViews" : [
        {
            "buffer" : 0,
            "byteLength" : 3468,
            "byteOffset" : 0
        },
        {
            "buffer" : 0,
            "byteLength" : 3468,
            "byteOffset" : 3468
        },
        {
            "buffer" : 0,
            "byteLength" : 2312,
            "byteOffset" : 6936
        },
        {
            "buffer" : 0,
            "byteLength" : 2688,
            "byteOffset" : 9248
        }
    ],
    "buffers" : [
        {
            "byteLength" : 11936,
            "uri" : "data:application/octet-stream;base64,"
        }
    ]
}
